<?xml version="1.0" encoding="UTF-8" standalone="no"?>
<svg
   xmlns:dc="http://purl.org/dc/elements/1.1/"
   xmlns:cc="http://creativecommons.org/ns#"
   xmlns:rdf="http://www.w3.org/1999/02/22-rdf-syntax-ns#"
   xmlns:svg="http://www.w3.org/2000/svg"
   xmlns="http://www.w3.org/2000/svg"
   xmlns:sodipodi="http://sodipodi.sourceforge.net/DTD/sodipodi-0.dtd"
   xmlns:inkscape="http://www.inkscape.org/namespaces/inkscape"
   width="64"
   height="64"
   version="1.1"
   id="svg18"
   sodipodi:docname="sepolicy.svg"
   inkscape:version="0.92.3 (2405546, 2018-03-11)"
   inkscape:export-filename="/home/nmcain/Desktop/recovery/lib/sepolicy.svg.png"
   inkscape:export-xdpi="294"
   inkscape:export-ydpi="294">
  <metadata
     id="metadata24">
    <rdf:RDF>
      <cc:Work
         rdf:about="">
        <dc:format>image/svg+xml</dc:format>
        <dc:type
           rdf:resource="http://purl.org/dc/dcmitype/StillImage" />
      </cc:Work>
    </rdf:RDF>
  </metadata>
  <defs
     id="defs22" />
  <sodipodi:namedview
     pagecolor="#ffffff"
     bordercolor="#666666"
     borderopacity="1"
     objecttolerance="10"
     gridtolerance="10"
     guidetolerance="10"
     inkscape:pageopacity="0"
     inkscape:pageshadow="2"
     inkscape:window-width="1535"
     inkscape:window-height="832"
     id="namedview20"
     showgrid="false"
     inkscape:zoom="3.6875"
     inkscape:cx="52.745763"
     inkscape:cy="10.305085"
     inkscape:window-x="65"
     inkscape:window-y="32"
     inkscape:window-maximized="1"
     inkscape:current-layer="svg18" />
  <circle
     style="opacity:0.2"
     cx="32"
     cy="33"
     r="28"
     id="circle2" />
  <circle
     style="fill:#4f4f4f"
     cx="32"
     cy="32"
     r="28"
     id="circle4" />
  <path
     style="opacity:0.2"
     d="m 24,20.99995 0,2 6,0 0,2 -8,0 0,6 -2,0 0,-6 -2,0 0,14 2,0 0,-6 2,0 0,6 4,4 13,0 2,-2 3,0 0,2 2,0 2,-1.9996 0,-12 -2,-2.0004 -2,0 0,2 -1.75002,4e-4 -4,-4 -6.25,0 0,-2 6,-4e-4 0,-2 z m 0,6 13,0 4,4 5,0 0,8 -6,0 -2,2 -10.75,0 -3.25,-3.4 z"
     id="path6" />
  <path
     style="fill:#ff5722;fill-opacity:1"
     d="m 24,20 0,2 6,0 0,2 -8,0 0,6 -2,0 0,-6 -2,0 0,14 2,0 0,-6 2,0 0,6 4,4 13,0 2,-2 3,0 0,2 2,0 2,-1.9996 0,-12 L 46,26 l -2,0 0,2 -1.75002,4e-4 -4,-4 -6.25,0 0,-2 6,-4e-4 0,-2 z m 0,6 13,0 4,4 5,0 0,8 -6,0 -2,2 L 27.25,40 24,36.6 Z"
     id="path8" />
  <path
     style="opacity:0.1;fill:#ffffff"
     d="M 31.998047 4 A 28 28 0 0 0 4 32 A 28 28 0 0 0 4.0175781 32.492188 A 28 28 0 0 1 31.998047 5 L 32 5 A 28 28 0 0 1 59.972656 32.5 A 28 28 0 0 0 59.998047 32 A 28 28 0 0 0 32 4 L 31.998047 4 z"
     id="path10" />
  <path
     style="opacity:0.2"
     d="M 63.958,45.848 A 16,16 0 0 1 48,61 16,16 0 0 1 32.042,46.152 16,16 0 0 0 32,47 16,16 0 0 0 48,63 16,16 0 0 0 64,47 16,16 0 0 0 63.95704,45.84766 Z"
     id="path12" />
  <circle
     style="fill:#db4539;fill-opacity:1"
     cx="48"
     cy="46"
     r="16"
     id="circle14" />
  <path
     style="fill:#ffffff"
     d="m 46,38 -0.1764,2.1072 a 6.2858,6.2858 0 0 0 -1.83704,1.06252 l -1.91518,-0.9018 -2,3.4642 1.73882,1.2076 a 6.2858,6.2858 0 0 0 -0.096,1.06026 6.2858,6.2858 0 0 0 0.0914,1.06474 l -1.73438,1.20312 2,3.4642 1.91072,-0.89956 a 6.2858,6.2858 0 0 0 1.8415,1.0558 l 0.1764,2.1116 4,0 0.1764,-2.1072 a 6.2858,6.2858 0 0 0 1.83708,-1.06252 l 1.91516,0.9018 2,-3.4642 -1.73884,-1.2076 a 6.2858,6.2858 0 0 0 0.096,-1.06026 6.2858,6.2858 0 0 0 -0.0914,-1.06474 l 1.73438,-1.20312 -2,-3.4642 -1.91072,0.89956 a 6.2858,6.2858 0 0 0 -1.842,-1.056 l -0.176,-2.112 -4,0 z m 2,5.7144 a 2.2858,2.2858 0 0 1 2.286,2.286 A 2.2858,2.2858 0 0 1 48,48.2864 2.2858,2.2858 0 0 1 45.714,46.0004 2.2858,2.2858 0 0 1 48,43.7144 Z"
     id="path16" />
</svg>
