<svg width="1920" height="1080" viewBox="0 0 1920 1080" fill="none" xmlns="http://www.w3.org/2000/svg">
<g clip-path="url(#clip0)">
<rect width="1920" height="1080" fill="#FF5722"/>
<path d="M218 -488.988C255.9 -542.988 551 -381.488 606 -368.988C661 -356.488 741 -309.488 821 -333.988C901 -358.488 953 -361.988 1004.5 -317.488C1056 -272.988 1116.5 -258.488 1200 -250.488C1283.5 -242.488 1348 -170.988 1382 -128.988C1416 -86.9883 1530 -29.9883 1600.5 -18.4882C1671 -6.98816 1841 18.511 1887.5 66.511C1934 114.511 1950.5 160.511 2066 206.511C2181.5 252.511 2200 356.011 2249.5 402.011C2299 448.011 2388.6 501.011 2426.5 447.011" stroke="url(#paint0_linear)" stroke-width="161"/>
<path d="M-169 121.012C-131.1 67.0117 164 228.512 219 241.012C274 253.512 354 300.512 434 276.012C514 251.512 566 248.012 617.5 292.512C669 337.012 729.5 351.512 813 359.512C896.5 367.512 961 439.012 995 481.012C1029 523.012 1143 580.012 1213.5 591.512C1284 603.012 1454 628.511 1500.5 676.511C1547 724.511 1563.5 770.511 1679 816.511C1794.5 862.511 1813 966.011 1862.5 1012.01C1912 1058.01 2001.6 1111.01 2039.5 1057.01" stroke="url(#paint1_linear)" stroke-width="161"/>
<path d="M-75 -113.988C-37.1 -167.988 258 -6.48825 313 6.01175C368 18.5117 448 65.5116 528 41.0117C608 16.5117 660 13.0116 711.5 57.5117C763 102.012 823.5 116.512 907 124.512C990.5 132.512 1055 204.012 1089 246.012C1123 288.012 1237 345.012 1307.5 356.512C1378 368.012 1548 393.511 1594.5 441.511C1641 489.511 1657.5 535.511 1773 581.511C1888.5 627.511 1907 731.011 1956.5 777.011C2006 823.011 2095.6 876.011 2133.5 822.011" stroke="url(#paint2_linear)" stroke-width="161"/>
<path d="M-189 242.012C-151.1 188.012 144 349.512 199 362.012C254 374.512 334 421.512 414 397.012C494 372.512 546 369.012 597.5 413.512C649 458.012 709.5 472.512 793 480.512C876.5 488.512 941 560.012 975 602.012C1009 644.012 1123 701.012 1193.5 712.512C1264 724.012 1434 749.511 1480.5 797.511C1527 845.511 1543.5 891.511 1659 937.511C1774.5 983.511 1793 1087.01 1842.5 1133.01C1892 1179.01 1981.6 1232.01 2019.5 1178.01" stroke="url(#paint3_linear)" stroke-width="151"/>
<path d="M-239 518.012C-201.1 464.012 94 625.512 149 638.012C204 650.512 284 697.512 364 673.012C444 648.512 496 645.012 547.5 689.512C599 734.012 659.5 748.512 743 756.512C826.5 764.512 891 836.012 925 878.012C959 920.012 1073 977.012 1143.5 988.512C1214 1000.01 1384 1025.51 1430.5 1073.51C1477 1121.51 1493.5 1167.51 1609 1213.51C1724.5 1259.51 1743 1363.01 1792.5 1409.01C1842 1455.01 1931.6 1508.01 1969.5 1454.01" stroke="url(#paint4_linear)" stroke-width="233"/>
<path d="M-239 675.012C-201.1 621.012 94 782.512 149 795.012C204 807.512 284 854.512 364 830.012C444 805.512 496 802.012 547.5 846.512C599 891.012 659.5 905.512 743 913.512C826.5 921.512 891 993.012 925 1035.01C959 1077.01 1073 1134.01 1143.5 1145.51C1214 1157.01 1384 1182.51 1430.5 1230.51C1477 1278.51 1493.5 1324.51 1609 1370.51C1724.5 1416.51 1743 1520.01 1792.5 1566.01C1842 1612.01 1931.6 1665.01 1969.5 1611.01" stroke="url(#paint5_linear)" stroke-width="233"/>
<path d="M-347 856.012C-309.1 802.012 -14 963.512 41 976.012C96 988.512 176 1035.51 256 1011.01C336 986.512 388 983.012 439.5 1027.51C491 1072.01 551.5 1086.51 635 1094.51C718.5 1102.51 783 1174.01 817 1216.01C851 1258.01 965 1315.01 1035.5 1326.51C1106 1338.01 1276 1363.51 1322.5 1411.51C1369 1459.51 1385.5 1505.51 1501 1551.51C1616.5 1597.51 1635 1701.01 1684.5 1747.01C1734 1793.01 1823.6 1846.01 1861.5 1792.01" stroke="url(#paint6_linear)" stroke-width="233"/>
</g>
<defs>
<linearGradient id="paint0_linear" x1="1115" y1="-146.5" x2="2365.5" y2="548.5" gradientUnits="userSpaceOnUse">
<stop stop-color="#686868" stop-opacity="0.17"/>
<stop offset="1" stop-color="white" stop-opacity="0.05"/>
</linearGradient>
<linearGradient id="paint1_linear" x1="300.5" y1="314.511" x2="1522.5" y2="939.011" gradientUnits="userSpaceOnUse">
<stop stop-color="white" stop-opacity="0.03"/>
<stop offset="1" stop-color="white" stop-opacity="0.1"/>
</linearGradient>
<linearGradient id="paint2_linear" x1="-619.5" y1="-378.5" x2="2421.5" y2="1177.5" gradientUnits="userSpaceOnUse">
<stop stop-color="white" stop-opacity="0.12"/>
<stop offset="1" stop-color="white" stop-opacity="0"/>
</linearGradient>
<linearGradient id="paint3_linear" x1="-84.4999" y1="125" x2="1809" y2="1135" gradientUnits="userSpaceOnUse">
<stop stop-color="white" stop-opacity="0.26"/>
<stop offset="1" stop-color="white" stop-opacity="0.03"/>
</linearGradient>
<linearGradient id="paint4_linear" x1="-677" y1="672.5" x2="1413.5" y2="1054" gradientUnits="userSpaceOnUse">
<stop stop-color="white" stop-opacity="0.07"/>
<stop offset="1" stop-color="#C2C2C2" stop-opacity="0"/>
<stop offset="1" stop-color="#C2C2C2" stop-opacity="0"/>
</linearGradient>
<linearGradient id="paint5_linear" x1="-107" y1="700.5" x2="1066.5" y2="1124" gradientUnits="userSpaceOnUse">
<stop stop-color="white" stop-opacity="0.06"/>
<stop offset="1" stop-color="#DADADA" stop-opacity="0.04"/>
</linearGradient>
<linearGradient id="paint6_linear" x1="-215" y1="881.5" x2="699" y2="1109.5" gradientUnits="userSpaceOnUse">
<stop stop-color="white" stop-opacity="0"/>
<stop offset="1" stop-color="#DDDDDD" stop-opacity="0.22"/>
</linearGradient>
<clipPath id="clip0">
<rect width="1920" height="1080" fill="white"/>
</clipPath>
</defs>
</svg>
